<?xml version="1.0" standalone="no"?>
<!DOCTYPE svg PUBLIC "-//W3C//DTD SVG 20010904//EN"
 "http://www.w3.org/TR/2001/REC-SVG-20010904/DTD/svg10.dtd">
<svg version="1.0" xmlns="http://www.w3.org/2000/svg"
 width="200.000000pt" height="200.000000pt" viewBox="0 0 200.000000 200.000000"
 preserveAspectRatio="xMidYMid meet">

<g transform="translate(0.000000,200.000000) scale(0.100000,-0.100000)"
fill="#000000" stroke="none">
<path d="M570 1725 c0 -3 -58 -194 -130 -424 -72 -231 -130 -426 -130 -435 0
-14 22 -16 180 -16 l179 0 148 -64 c81 -36 154 -66 162 -68 8 -2 24 21 41 62
l28 65 191 3 190 2 30 98 c188 612 231 756 231 768 0 11 -32 14 -175 14 l-175
0 0 -25 0 -25 140 0 c116 0 140 -3 140 -15 0 -12 -70 -247 -195 -650 l-34
-110 -132 3 -131 3 6 47 c4 26 9 63 12 82 l5 35 -169 72 c-92 40 -175 75 -183
78 -13 5 -31 -29 -85 -154 l-69 -161 -132 0 c-91 0 -133 4 -133 11 0 6 50 172
110 368 61 196 113 364 116 374 5 15 21 17 144 17 l139 0 10 -35 c5 -19 22
-82 37 -140 15 -58 28 -104 29 -103 1 2 -4 76 -13 166 l-15 162 -184 0 c-100
0 -183 -2 -183 -5z"/>
<path d="M300 495 c0 -188 1 -195 20 -195 19 0 20 7 20 100 0 94 2 103 25 125
29 30 46 31 68 7 14 -15 17 -40 17 -125 0 -100 1 -107 20 -107 19 0 20 7 20
113 0 124 -10 156 -53 171 -20 7 -36 6 -62 -7 l-35 -17 0 65 c0 58 -2 65 -20
65 -19 0 -20 -7 -20 -195z"/>
<path d="M1308 666 c-12 -9 -18 -27 -18 -50 0 -26 -4 -36 -16 -36 -10 0 -14
-7 -12 -17 2 -10 10 -17 16 -15 9 1 12 -28 12 -106 0 -127 10 -149 68 -143 20
2 14 38 -8 44 -18 5 -20 14 -20 100 0 86 2 95 20 100 26 7 26 37 1 37 -17 0
-20 8 -23 49 -3 45 -5 48 -20 37z"/>
<path d="M672 574 c-65 -45 -77 -191 -20 -251 46 -49 125 -37 161 24 17 30 17
34 3 39 -10 4 -26 -5 -45 -25 -16 -17 -36 -31 -45 -31 -26 0 -66 46 -66 75 0
25 1 25 85 25 84 0 85 0 85 25 0 97 -91 166 -158 119z m86 -41 c11 -10 23 -28
27 -40 6 -22 4 -23 -59 -23 -73 0 -81 9 -45 54 24 30 49 33 77 9z"/>
<path d="M1012 568 c-19 -19 -22 -20 -22 -5 0 9 -7 17 -15 17 -12 0 -15 -14
-15 -62 0 -35 -2 -123 -3 -196 -2 -117 0 -132 14 -132 21 0 26 14 24 73 -1 44
0 48 19 42 54 -17 63 -16 94 10 54 45 66 149 27 226 -27 50 -86 63 -123 27z
m85 -44 c21 -33 23 -121 4 -157 -42 -80 -122 -10 -108 95 11 83 68 117 104 62z"/>
<path d="M1534 580 c-24 -9 -54 -47 -54 -67 0 -21 38 -15 45 7 8 25 49 36 81
21 20 -9 25 -17 22 -38 -3 -24 -9 -29 -53 -39 -71 -16 -81 -22 -94 -50 -18
-39 -13 -73 14 -99 29 -30 58 -31 108 -6 29 15 37 16 37 5 0 -8 8 -14 18 -14
17 0 18 10 14 123 -3 115 -5 123 -28 145 -26 23 -71 28 -110 12z m75 -226
c-26 -28 -61 -31 -83 -8 -33 33 -15 61 50 78 l49 12 3 -29 c2 -20 -4 -37 -19
-53z"/>
<path d="M532 449 c2 -6 8 -10 13 -10 5 0 11 4 13 10 2 6 -4 11 -13 11 -9 0
-15 -5 -13 -11z"/>
<path d="M872 449 c2 -6 8 -10 13 -10 5 0 11 4 13 10 2 6 -4 11 -13 11 -9 0
-15 -5 -13 -11z"/>
<path d="M1202 449 c2 -6 8 -10 13 -10 5 0 11 4 13 10 2 6 -4 11 -13 11 -9 0
-15 -5 -13 -11z"/>
<path d="M1422 449 c2 -6 8 -10 13 -10 5 0 11 4 13 10 2 6 -4 11 -13 11 -9 0
-15 -5 -13 -11z"/>
</g>
</svg>
